PathFileType	4	(X/Y/Z)	72_1_49_p1_0-371_filt_butterworth.trc
DataRate	CameraRate	NumFrames	NumMarkers	Units	OrigDataRate	OrigDataStartFrame	OrigNumFrames
60.0	60.0	7	27	m	60.0	0	371
Frame#	Time	RHip			RKnee			RAnkle			RBigToe			RSmallToe			RHeel			LHip			LKnee			LAnkle			LBigToe			LSmallToe			LHeel			Neck			Head			Nose			RShoulder			RElbow			RWrist			RThumb			RIndex			RPinky			LShoulder			LElbow			LWrist			LThumb			LIndex			LPinky			
		X1	Y1	Z1	X2	Y2	Z2	X3	Y3	Z3	X4	Y4	Z4	X5	Y5	Z5	X6	Y6	Z6	X7	Y7	Z7	X8	Y8	Z8	X9	Y9	Z9	X10	Y10	Z10	X11	Y11	Z11	X12	Y12	Z12	X13	Y13	Z13	X14	Y14	Z14	X15	Y15	Z15	X16	Y16	Z16	X17	Y17	Z17	X18	Y18	Z18	X19	Y19	Z19	X20	Y20	Z20	X21	Y21	Z21	X22	Y22	Z22	X23	Y23	Z23	X24	Y24	Z24	X25	Y25	Z25	X26	Y26	Z26	X27	Y27	Z27	
0	0.0	0.21424623070989052	0.8988434753885198	0.6120092794965699	0.20623662236058263	0.5126149434460912	0.5798771057918071	0.1960800526494649	0.08159803843222133	0.6440346914269168	0.1498570495933964	0.07119657219867964	0.4389863905859505	0.22181753977923283	0.10029431194849539	0.42433073042927727	0.18343748058189957	-0.021665737932128976	0.736127941713647	-0.026944052706680204	0.9050266507485017	0.6253690248957686	-0.013887467871881864	0.48601099430445743	0.6394318671932203	-0.011073007564017126	0.09007051658314344	0.6529425207383254	-0.002871474526682716	0.09876034632106148	0.4479224542271244	-0.06192693879051443	0.07518294328486996	0.512289349076294	0.008899122982960675	0.02097089436782059	0.7028633610009449	0.09776865493464894	1.5422837567264276	0.6434711705239523	0.10503996717462785	1.8152883918723028	0.5708746587084411	0.07391963703638227	1.674474649547378	0.5075055205500538	0.2650490198428712	1.4512040550351468	0.5945572054940189	0.33313619724471216	1.1854735176808449	0.5734866750743279	0.18386821519462385	1.0362963905631912	0.4452168346718297	0.07372909797615698	0.9848696306085708	0.4379070015358854	0.0716939677373407	0.9538312115049066	0.449815040767773	0.076319401759475	0.941892721973205	0.4599428198375709	-0.06824976446437199	1.4675114174375052	0.6428210988983196	-0.1371221480095066	1.1844580896485648	0.6170419573688418	-0.02052725632762591	1.031903799545992	0.47208857334845633	0.08048337560898382	1.0166578079195876	0.4206285892138185	0.08378032452314939	0.967962999339304	0.41163294918417564	0.06874311953097259	0.9363580889286114	0.4595544601471025	
1	0.0166666666666666	0.21350160036886393	0.9002344550386328	0.6105914197609166	0.2055481064937157	0.5120888939431026	0.5795862177929534	0.19468404000014958	0.08348705397540973	0.6401603151969436	0.15133029239516357	0.07524531655579611	0.4346801030000093	0.2223222455899864	0.09952419063259663	0.42495569832015245	0.18233513724946562	-0.02113009069277156	0.733365962865568	-0.025761115227606782	0.9046694839365569	0.6246932288519105	-0.01302533814158162	0.4850161867873573	0.6416230344850508	-0.01128518572717591	0.09137376115679613	0.6526686590650653	-0.0032891975623655137	0.09944114940726301	0.44733835868756106	-0.06372682663785816	0.07813271770735941	0.5139311523853489	0.009744029302714308	0.019883799535422506	0.7032651576895894	0.09776406770789488	1.54225526338016	0.6435157016690977	0.10314047347687341	1.8155836258618838	0.5663282354881582	0.07103202905739839	1.6748279147906577	0.5024533514564122	0.2642136579573467	1.4502822125192965	0.6013465242359447	0.3331247659868431	1.1854896339054946	0.573499142364642	0.18648709245151524	1.034378977749077	0.4502904062279253	0.07391094700250386	0.9856665348543754	0.43959548084471645	0.07175107548345476	0.9538286538044194	0.44975313820276125	0.07625554545376301	0.9418411863670602	0.4596273768350043	-0.06808722074179314	1.4654020400804784	0.6432820289095179	-0.1351630598350271	1.182940454338901	0.6234191678343182	-0.02023223454420362	1.0322114454423765	0.4722278381389666	0.08039308990927155	1.0118052118103416	0.4284840137476939	0.08375200905107547	0.9650296233733524	0.41856180712796703	0.06860721650769572	0.9360719092680404	0.4604677933100165	
2	0.0333333333333333	0.2130591026091437	0.9012682626639026	0.6097137861503097	0.2050133622791996	0.5115435448944081	0.5793546161609905	0.19358273908491738	0.08491127330047799	0.6371186955079585	0.15287529046071638	0.07708728420725844	0.43308069349818734	0.22332220863364508	0.09780109441917004	0.42656600066981293	0.18140779401548912	-0.020703246961936067	0.7310503477722705	-0.024717642218259978	0.9044582082661435	0.6240101273670697	-0.012336204972455581	0.4842272862433943	0.6434446419111206	-0.011465609342247458	0.0924919048122756	0.6524329558098184	-0.0033222891758776275	0.0995668389073007	0.44723886321172596	-0.06461835140460127	0.0806875686567717	0.5135733489336614	0.010439645595415723	0.018896665398271728	0.7036008109732426	0.09776004560828175	1.542239198282889	0.643544603006104	0.10179657330555662	1.815711836709199	0.5631327322354153	0.06951009962687199	1.6751210919776842	0.49927243362615303	0.2637903295802944	1.449586580206004	0.6056835478747485	0.33312260063988214	1.1855072387194188	0.5735250014592866	0.18816627953844076	1.0332224458596089	0.453563092051395	0.07411349282157073	0.9872622237122768	0.44011074991756105	0.07180829968517258	0.9538360768585544	0.4496581791191151	0.07623686673691757	0.9421817708218075	0.45950353563305274	-0.0679831032491777	1.4640649115706685	0.6435840042045143	-0.13394489117637579	1.1819957733968012	0.6274218663964101	-0.02016262130161605	1.0321979110608055	0.4722664105943389	0.0806053182126717	1.0093880135425193	0.4331106861219752	0.08441038974705736	0.9635570996788637	0.42162752835853584	0.06878330444999146	0.9363643846764591	0.45977882196946673	
3	0.05	0.21288242912722757	0.9019767218304567	0.6093159528632686	0.20462117321581733	0.5109864918205446	0.5791781434944014	0.19275393340410588	0.08590634954740586	0.6348435892180739	0.1543722281040143	0.07729728462639743	0.43345463896729186	0.22462462538413275	0.09547441667364578	0.42879062569658327	0.18064672176445404	-0.020381941137261692	0.7291571965074729	-0.02380517824643208	0.9043742052144514	0.623332315076488	-0.01180520737129186	0.4836264050511305	0.6449254741642987	-0.011616584061832375	0.09343777865705301	0.6522328655067076	-0.0031160581598376398	0.09932732932305537	0.4474994839638931	-0.0648004132758181	0.08285946430890134	0.5117362439933605	0.010997571125023739	0.018005241794196797	0.7038753784543467	0.09775646414706679	1.5422320578950246	0.6435630756431041	0.10091551725769043	1.8157423724176447	0.5610634575696906	0.06907301375993267	1.6753443624426365	0.49760700872815594	0.2636442093084195	1.4490918873963772	0.6080247811851155	0.33312730318165007	1.185524700445416	0.5735636733791846	0.18908613277061637	1.0326733261084502	0.45537373675353837	0.07435310894942243	0.9893454784717672	0.4397437997149046	0.07186514832365869	0.9538496504308325	0.4495438567993263	0.07625192050718402	0.9428034726901562	0.4595243812241867	-0.06792803573066152	1.463350170291081	0.6437531241531311	-0.13336369199879833	1.181513396263272	0.6293813234527084	-0.020248688392241268	1.0319337853730448	0.472228631732681	0.08105031911953427	1.0088394155068485	0.43507384189016346	0.08558004971749898	0.9632144723117294	0.4217013767961787	0.06918917801671191	0.9370783420601797	0.4579201712785964	
4	0.0666666666666666	0.2129352716196133	0.9023916561044224	0.6093374940983123	0.20436032280235167	0.5104253302420492	0.5790526423916685	0.19217540645805253	0.08650793585617271	0.6332687531854021	0.15570128963901678	0.0764501272865446	0.4350684162941301	0.22603669231537327	0.09289355076145477	0.43125856161878784	0.1800431913808444	-0.02016290761638875	0.7276626091448936	-0.023015267879915362	0.9043988562586703	0.6226723866154071	-0.011417484344878569	0.4831956555891269	0.6460943159374531	-0.011740415538531269	0.09422421379859912	0.6520658426898556	-0.0028158133068641312	0.09891253515640715	0.44799573710833673	-0.06447191243658296	0.08466037283954354	0.5089401428365758	0.011429405155497178	0.01720527856102648	0.7040939177353447	0.09775319883550725	1.5422303386769782	0.6435763206882302	0.10040455593028781	1.8157445809906196	0.5598957201104628	0.06943993647171012	1.6754879075196927	0.49710131843130057	0.26364047173842686	1.448772863391523	0.6088267289417312	0.33313647558996784	1.1855403874062846	0.5736145791452582	0.18942700846325813	1.0325781497092665	0.45606118494565545	0.07464616890212378	0.9916050804223387	0.43878562119723263	0.07192112938007761	0.9538655442847752	0.4494238645258863	0.07628926166280772	0.9435952893248151	0.45964299860087665	-0.0679126419303805	1.4631079546247205	0.6438154881251908	-0.13331551226754051	1.181382672379321	0.6296288094008038	-0.020420707608457343	1.0314896573508614	0.4721388425721007	0.08165835123020924	1.0095926200940566	0.4349387166057603	0.08708557206880418	0.9636707853278407	0.41965461636119206	0.06974263186670916	0.9380566083255141	0.45532446639054885	
5	0.0833333333333333	0.21318132178279856	0.9025448890519268	0.6097179840539603	0.20421959453758556	0.5098676556794587	0.5789739554512746	0.19182494174709494	0.08675168536675808	0.6323279442680547	0.15674265937968374	0.07512062166102719	0.43718850236550993	0.22736560590129107	0.09040789004802446	0.4335987966547521	0.17958847374914413	-0.020042880796956673	0.7265426857582509	-0.022339455686502113	0.9045135428759897	0.6220429366190685	-0.011158174900003823	0.4829171502359457	0.6469799519234528	-0.011839409424944746	0.09486404134438531	0.6519293418933855	-0.002566863409575692	0.09851237090923302	0.4486031388093321	-0.06383174907197027	0.08610226242448923	0.5057053507354381	0.011746746950794857	0.016492525536588885	0.7042614864186795	0.0977501251848606	1.542230537089161	0.6435895392496164	0.10017093992036191	1.8157878104315213	0.5594048284772112	0.0703300327773341	1.6755419085430323	0.49739960440446745	0.2636442914670222	1.4486042374925476	0.6085458959192823	0.3331477198426571	1.1855526679248225	0.5736771397784313	0.18936926293158246	1.0327834478757199	0.45596428123904703	0.0750090461957398	0.9937298108534812	0.4375272053250314	0.07197575083559407	0.9538799281839021	0.44931189558128753	0.07633744510203416	0.9444462180784919	0.4598124727555941	-0.06792754559247069	1.463188402954593	0.6437971954905173	-0.13369640194784832	1.1814929511859553	0.6284955946382886	-0.020608950742642403	1.0309361159660204	0.4720213841307068	0.08235967314504683	1.0110808296948706	0.43327054582226765	0.08875153990737705	0.9645950827830876	0.4163585109738732	0.07036146065883543	0.9391420103787727	0.45242433245846836	
6	0.1	0.21358427131328114	0.9024682442390977	0.6103969969287313	0.20418777192030185	0.5093210636533108	0.5789379252717024	0.19168032277157063	0.0866732512191413	0.6319549193241444	0.15724319551886476	0.07418368270773168	0.4386754785322783	0.22832434009953168	0.08846903276407672	0.4352214793915137	0.17927383975383726	-0.020018595076605326	0.725773526421263	-0.021769286233984615	0.9046996465435995	0.6214565597227139	-0.011012418043455735	0.4827730013701482	0.6476111668151664	-0.011915871373673411	0.09537009240188235	0.6518208176514203	-0.0026863844163268844	0.09848460557157099	0.4492244849802426	-0.06318003259486744	0.08712270641853245	0.5030261918480218	0.011961195774875599	0.01586273255871233	0.7043831421067933	0.09774489999589835	1.542275141112149	0.643603389407148	0.10005374373263229	1.8160783558039841	0.5591949028816019	0.0712850415637037	1.6755254974276983	0.4980177982811247	0.26333262375753524	1.4484710898371131	0.6077843946565337	0.33315681189029167	1.1855569161937953	0.5737536713459044	0.1891636088257414	1.0330970647025914	0.455548554981226	0.0755633529013771	0.995265474359727	0.4363879111241963	0.07202797956317031	0.9538866168148717	0.4492436364712887	0.07636901533581376	0.945130586045324	0.45993317024112446	-0.0679562574620433	1.4633757124412592	0.6437267195398425	-0.13448187421792282	1.181700701778613	0.6260308442235054	-0.020738711823955473	1.0304666761566053	0.4719048037381368	0.08308718995057518	1.0122004145439056	0.43092873537451415	0.09018186141238321	0.9653978723718617	0.4132776382825657	0.07081188760450575	0.9400299161988962	0.45005967735086005	
